# xmcd CD database file
#
# Track frame offsets:
#	150
#	13487
#	26027
#	44640
#	64780
#	84735
#	99527
#	114385
#	128645
#	140357
#	153807
#	167610
#	182552
#	196245
#	214410
#	232157
#	246120
#	259900
#	275555
#	290715
#
# Disc length: 4069 seconds
#
# Revision: 2
# Processed by: cddbd v1.5.2PL0 Copyright (c) Steve Scherf et al.
# Submitted via: CDex 1.50beta10
#
DISCID=2e0fe314
DTITLE=Slim Dusty - A Land He Calls His Own  CD 3
DYEAR=1992
DGENRE=Country
TTITLE0=Steppin' Round Australia
TTITLE1=Scrap With A Buck Kangaroo
TTITLE2=Ballad Of The Drover
TTITLE3=Droving By Train
TTITLE4=Lawson's Ghost
TTITLE5=A Land He Calls His Own
TTITLE6=Another Day, Another Town
TTITLE7=Up The Old Nulla Road
TTITLE8=Second Class, Wait Here
TTITLE9=A Prouder Man Than You
TTITLE10=Balladeers Of Australia
TTITLE11=About This Hat
TTITLE12=Crying On Each Other's Shoulder
TTITLE13=How's Your Memory?
TTITLE14=Drought Time
TTITLE15=The Round Table
TTITLE16=Last Of The Bushmen
TTITLE17=The Pearl Of Them All
TTITLE18=What I Am
TTITLE19=Traveller's Prayer
EXTD=YEAR: 1992
EXTT0=
EXTT1=
EXTT2=
EXTT3=
EXTT4=
EXTT5=
EXTT6=
EXTT7=
EXTT8=
EXTT9=
EXTT10=
EXTT11=
EXTT12=
EXTT13=
EXTT14=
EXTT15=
EXTT16=
EXTT17=
EXTT18=
EXTT19=
PLAYORDER=
